<svg xmlns="http://www.w3.org/2000/svg" width="600" height="800" viewBox="0 0 600 800" role="img" aria-labelledby="title">
<title id="title">NOCTURNE — A CONCERTO AFTER DARK</title>
<rect width="600" height="800" fill="#e6e1d5"/>
<g fill="none" stroke="#163b37" stroke-width="1.5"><ellipse cx="300" cy="245" rx="50" ry="35.0"/><ellipse cx="300" cy="245" rx="68" ry="47.599999999999994"/><ellipse cx="300" cy="245" rx="86" ry="60.199999999999996"/><ellipse cx="300" cy="245" rx="104" ry="72.8"/><ellipse cx="300" cy="245" rx="122" ry="85.39999999999999"/><ellipse cx="300" cy="245" rx="140" ry="98.0"/><ellipse cx="300" cy="245" rx="158" ry="110.6"/><ellipse cx="300" cy="245" rx="176" ry="123.19999999999999"/><ellipse cx="300" cy="245" rx="194" ry="135.79999999999998"/><ellipse cx="300" cy="245" rx="212" ry="148.39999999999998"/><ellipse cx="300" cy="245" rx="230" ry="161.0"/><ellipse cx="300" cy="245" rx="248" ry="173.6"/><ellipse cx="300" cy="245" rx="266" ry="186.2"/></g><rect x="0" y="515" width="600" height="168" fill="#163b37"/><rect x="40" y="515" width="24" height="80" fill="#e6e1d5"/><rect x="80" y="515" width="24" height="100" fill="#e6e1d5"/><rect x="120" y="515" width="24" height="120" fill="#e6e1d5"/><rect x="160" y="515" width="24" height="80" fill="#e6e1d5"/><rect x="200" y="515" width="24" height="100" fill="#e6e1d5"/><rect x="240" y="515" width="24" height="120" fill="#e6e1d5"/><rect x="280" y="515" width="24" height="80" fill="#e6e1d5"/><rect x="320" y="515" width="24" height="100" fill="#e6e1d5"/><rect x="360" y="515" width="24" height="120" fill="#e6e1d5"/><rect x="400" y="515" width="24" height="80" fill="#e6e1d5"/><rect x="440" y="515" width="24" height="100" fill="#e6e1d5"/><rect x="480" y="515" width="24" height="120" fill="#e6e1d5"/><rect x="520" y="515" width="24" height="80" fill="#e6e1d5"/><rect x="560" y="515" width="24" height="100" fill="#e6e1d5"/>
<g fill="#163b37"><text x="42" y="52" font-family="Arial,sans-serif" font-size="13" letter-spacing="3">TICKETING / CLASSICAL</text>
<text x="42" y="420" font-size="73" font-family="Georgia,serif" font-weight="700" letter-spacing="-3">NOCTURNE</text>
<text x="44" y="503" font-family="Arial,sans-serif" font-size="17" letter-spacing="2">A CONCERTO AFTER DARK</text>
<path d="M42 718H558" stroke="#163b37" stroke-width="1"/>
<text x="42" y="750" font-family="Arial,sans-serif" font-size="11" letter-spacing="2">LIVE PERFORMANCE / BE THERE.</text>
<text x="558" y="750" text-anchor="end" font-family="Arial,sans-serif" font-size="11">CLASSICAL</text></g></svg>